<svg xmlns="http://www.w3.org/2000/svg" viewBox="0 0 1236 572"><defs><style>.cls-1{fill:#fff;}</style></defs><title>Diapo</title><g id="Layer_2" data-name="Layer 2"><g id="Layer_1-2" data-name="Layer 1"><rect width="1236" height="572"/><path class="cls-1" d="M160.23,310.41V159.6h199.2V310.41H340.57v-132H179.08v132ZM250.4,262V197.3h18.85V262Z"/><path class="cls-1" d="M378.28,310.41V159.6H538.51v18.85H397.13V291.56H538.51v18.85Z"/><path class="cls-1" d="M557.36,310.41V159.6H717.6V310.41Zm141.39-18.85V178.45H576.21V291.56Z"/><path class="cls-1" d="M736.45,310.41V159.6H896.69V310.41H774.15V291.56H877.83V178.45H755.3v132Z"/><path class="cls-1" d="M915.54,310.41V159.6h160.23v18.85H934.39V291.56h141.38v18.85Zm37.7-66V225.58h55.29v18.85Z"/><path class="cls-1" d="M378.63,413.4V350H446v7.93H386.56v47.58h51.55V385.64H414.32v-7.93H446V413.4Z"/><path class="cls-1" d="M491.34,413.4V350h67.41v7.93H499.27V413.4Z"/><path class="cls-1" d="M604,413.4V350h67.41V413.4Zm59.48-7.93V357.89H612v47.58Z"/><path class="cls-1" d="M716.75,413.4V350h7.93v55.51h51.55V350h7.93V413.4Z"/><polygon class="cls-1" points="829.45 349.96 829.45 413.23 837.38 413.23 837.38 357.89 888.93 357.89 888.93 389.44 845.75 389.44 845.75 397.37 896.86 397.37 896.86 349.96 829.45 349.96"/></g></g></svg>